<svg width="24" height="24" viewBox="0 0 24 24" fill="none" xmlns="http://www.w3.org/2000/svg">
<g id="Group">
<path id="Vector" d="M22.2234 0H1.77187C0.792187 0 0 0.750804 0 1.67907V21.6141C0 22.5423 0.792187 23.2977 1.77187 23.2977H22.2234C23.2031 23.2977 24 22.5423 24 21.6186V1.67907C24 0.750804 23.2031 0 22.2234 0ZM7.12031 19.8531H3.55781V8.73208H7.12031V19.8531ZM5.33906 7.21682C4.19531 7.21682 3.27188 6.3204 3.27188 5.21467C3.27188 4.10895 4.19531 3.21253 5.33906 3.21253C6.47813 3.21253 7.40156 4.10895 7.40156 5.21467C7.40156 6.31585 6.47813 7.21682 5.33906 7.21682ZM20.4516 19.8531H16.8937V14.4473C16.8937 13.1595 16.8703 11.4987 15.0422 11.4987C13.1906 11.4987 12.9094 12.9047 12.9094 14.3563V19.8531H9.35625V8.73208H12.7687V10.2519H12.8156C13.2891 9.37823 14.4516 8.45451 16.1813 8.45451C19.7859 8.45451 20.4516 10.757 20.4516 13.7511V19.8531Z" fill="#98A2B3"/>
</g>
</svg>
