<svg width="40" height="40" viewBox="0 0 40 40" fill="none" xmlns="http://www.w3.org/2000/svg">
<g id="Group 81">
<circle id="Ellipse 49" cx="20" cy="20" r="19.5" fill="#EAECF4" stroke="black"/>
<path id="Vector" d="M30 31V28.3333C30 26.9188 29.4732 25.5623 28.5355 24.5621C27.5979 23.5619 26.3261 23 25 23H15C13.6739 23 12.4021 23.5619 11.4645 24.5621C10.5268 25.5623 10 26.9188 10 28.3333V31" stroke="black" stroke-width="2" stroke-linecap="round" stroke-linejoin="round"/>
<path id="Vector_2" d="M20 18C23.3137 18 26 15.5376 26 12.5C26 9.46243 23.3137 7 20 7C16.6863 7 14 9.46243 14 12.5C14 15.5376 16.6863 18 20 18Z" stroke="black" stroke-width="2" stroke-linecap="round" stroke-linejoin="round"/>
</g>
</svg>
