<svg width="24" height="19" viewBox="0 0 24 19" fill="none" xmlns="http://www.w3.org/2000/svg">
<path id="Vector" d="M7.55016 19C16.6045 19 21.5583 11.6894 21.5583 5.35156C21.5583 5.14604 21.5536 4.93595 21.5442 4.73043C22.5079 4.05142 23.3395 3.21038 24 2.24682C23.1025 2.63587 22.1496 2.88995 21.1739 3.0004C22.2013 2.40038 22.9705 1.45779 23.3391 0.347345C22.3726 0.905429 21.3156 1.29911 20.2134 1.51151C19.4708 0.74272 18.489 0.23369 17.4197 0.06312C16.3504 -0.10745 15.2532 0.0699397 14.2977 0.567864C13.3423 1.06579 12.5818 1.85651 12.1338 2.81779C11.6859 3.77906 11.5754 4.85734 11.8195 5.88592C9.86249 5.79023 7.94794 5.2949 6.19998 4.43203C4.45203 3.56916 2.90969 2.35803 1.67297 0.877134C1.0444 1.93303 0.852057 3.18251 1.13503 4.37162C1.418 5.56072 2.15506 6.60024 3.19641 7.27889C2.41463 7.25471 1.64998 7.04963 0.965625 6.6806V6.73997C0.964925 7.84806 1.3581 8.92219 2.07831 9.77977C2.79852 10.6374 3.80132 11.2255 4.91625 11.4441C4.19206 11.6372 3.43198 11.6653 2.69484 11.5263C3.00945 12.4793 3.62157 13.3128 4.44577 13.9105C5.26997 14.5082 6.26512 14.8402 7.29234 14.8603C5.54842 16.195 3.39417 16.919 1.17656 16.9156C0.783287 16.915 0.390399 16.8915 0 16.8452C2.25286 18.2534 4.87353 19.0014 7.55016 19Z" fill="#98A2B3"/>
</svg>
